<?xml version="1.0" encoding="UTF-8" standalone="no"?>
<!DOCTYPE svg PUBLIC "-//W3C//DTD SVG 1.1//EN"
 "http://www.w3.org/Graphics/SVG/1.1/DTD/svg11.dtd">
<!-- Generated by graphviz version 2.34.0 (20140110.0949)
 -->
<!-- Title: GradleSetup Pages: 1 -->
<svg width="1739pt" height="650pt"
 viewBox="0.00 0.00 1739.00 650.00" xmlns="http://www.w3.org/2000/svg" xmlns:xlink="http://www.w3.org/1999/xlink">
<g id="graph0" class="graph" transform="scale(1 1) rotate(0) translate(4 646)">
<title>GradleSetup</title>
<polygon fill="white" stroke="white" points="-4,4 -4,-646 1735,-646 1735,4 -4,4"/>
<text text-anchor="middle" x="61" y="-626.8" font-family="Times,serif" font-size="14.00">Gradle Build Setup</text>
<g id="clust1" class="cluster"><title>cluster1</title>
<polygon fill="lightgrey" stroke="black" points="254,-39 254,-611 859,-611 859,-39 254,-39"/>
<text text-anchor="middle" x="294" y="-46.8" font-family="Times,serif" font-size="14.00">Java Plugin</text>
</g>
<g id="clust2" class="cluster"><title>cluster11</title>
</g>
<g id="clust3" class="cluster"><title>cluster12</title>
</g>
<g id="clust4" class="cluster"><title>cluster13</title>
</g>
<g id="clust5" class="cluster"><title>cluster2</title>
<polygon fill="lightgrey" stroke="black" points="881,-8 881,-520 1317,-520 1317,-8 881,-8"/>
<text text-anchor="middle" x="924" y="-15.8" font-family="Times,serif" font-size="14.00">Bnd Projects</text>
</g>
<g id="clust6" class="cluster"><title>cluster21</title>
</g>
<g id="clust7" class="cluster"><title>cluster22</title>
</g>
<g id="clust8" class="cluster"><title>cluster23</title>
</g>
<g id="clust9" class="cluster"><title>cluster100</title>
<polygon fill="lightgrey" stroke="black" points="981,-39 981,-269 1151,-269 1151,-39 981,-39"/>
<text text-anchor="middle" x="1021.5" y="-46.8" font-family="Times,serif" font-size="14.00">Dist Project</text>
</g>
<g id="clust10" class="cluster"><title>cluster3</title>
<polygon fill="lightgrey" stroke="black" points="1049,-528 1049,-603 1134,-603 1134,-528 1049,-528"/>
<text text-anchor="middle" x="1091.5" y="-535.8" font-family="Times,serif" font-size="14.00">Root Project</text>
</g>
<g id="clust11" class="cluster"><title>cluster4</title>
<polygon fill="lightgrey" stroke="black" points="8,-186 8,-349 246,-349 246,-186 8,-186"/>
<text text-anchor="middle" x="52" y="-193.8" font-family="Times,serif" font-size="14.00">Java Projects</text>
</g>
<g id="clust12" class="cluster"><title>cluster41</title>
</g>
<g id="clust13" class="cluster"><title>cluster42</title>
</g>
<g id="clust14" class="cluster"><title>cluster5</title>
<polygon fill="lightgrey" stroke="black" points="1325,-357 1325,-611 1723,-611 1723,-357 1325,-357"/>
<text text-anchor="middle" x="1365.5" y="-364.8" font-family="Times,serif" font-size="14.00">All Projects</text>
</g>
<g id="clust15" class="cluster"><title>cluster21</title>
</g>
<g id="clust16" class="cluster"><title>cluster22</title>
</g>
<!-- compileJava -->
<g id="node1" class="node"><title>compileJava</title>
<polygon fill="lightcyan" stroke="black" points="842.25,-595 757.75,-595 757.75,-559 842.25,-559 842.25,-595"/>
<text text-anchor="middle" x="800" y="-573.3" font-family="Times,serif" font-size="14.00">compileJava</text>
</g>
<!-- classes -->
<g id="node3" class="node"><title>classes</title>
<polygon fill="lightcyan" stroke="black" points="680,-504 626,-504 626,-468 680,-468 680,-504"/>
<text text-anchor="middle" x="653" y="-482.3" font-family="Times,serif" font-size="14.00">classes</text>
</g>
<!-- compileJava&#45;&gt;classes -->
<g id="edge1" class="edge"><title>compileJava&#45;&gt;classes</title>
<path fill="none" stroke="black" d="M784.341,-558.889C774.591,-548.947 761.391,-536.705 748,-528 729.872,-516.215 707.789,-506.449 689.478,-499.407"/>
<polygon fill="black" stroke="black" points="690.608,-496.093 680.015,-495.879 688.162,-502.652 690.608,-496.093"/>
</g>
<!-- processResources -->
<g id="node2" class="node"><title>processResources</title>
<polygon fill="lightcyan" stroke="black" points="739.25,-595 626.75,-595 626.75,-559 739.25,-559 739.25,-595"/>
<text text-anchor="middle" x="683" y="-573.3" font-family="Times,serif" font-size="14.00">processResources</text>
</g>
<!-- processResources&#45;&gt;classes -->
<g id="edge2" class="edge"><title>processResources&#45;&gt;classes</title>
<path fill="none" stroke="black" d="M677.216,-558.84C672.899,-546.035 666.921,-528.299 661.984,-513.654"/>
<polygon fill="black" stroke="black" points="665.277,-512.466 658.767,-504.107 658.644,-514.702 665.277,-512.466"/>
</g>
<!-- jar -->
<g id="node4" class="node"><title>jar</title>
<polygon fill="lightcyan" stroke="black" points="752,-432 698,-432 698,-396 752,-396 752,-432"/>
<text text-anchor="middle" x="725" y="-410.3" font-family="Times,serif" font-size="14.00">jar</text>
</g>
<!-- classes&#45;&gt;jar -->
<g id="edge6" class="edge"><title>classes&#45;&gt;jar</title>
<path fill="none" stroke="black" d="M670.798,-467.697C679.604,-459.135 690.382,-448.656 700.001,-439.304"/>
<polygon fill="black" stroke="black" points="702.677,-441.585 707.407,-432.104 697.797,-436.566 702.677,-441.585"/>
</g>
<!-- compileTestJava -->
<g id="node5" class="node"><title>compileTestJava</title>
<polygon fill="lightcyan" stroke="black" points="602,-432 494,-432 494,-396 602,-396 602,-432"/>
<text text-anchor="middle" x="548" y="-410.3" font-family="Times,serif" font-size="14.00">compileTestJava</text>
</g>
<!-- classes&#45;&gt;compileTestJava -->
<g id="edge5" class="edge"><title>classes&#45;&gt;compileTestJava</title>
<path fill="none" stroke="black" d="M627.314,-467.876C613.712,-458.808 596.828,-447.552 582.139,-437.759"/>
<polygon fill="black" stroke="black" points="584.047,-434.825 573.785,-432.19 580.164,-440.649 584.047,-434.825"/>
</g>
<!-- test -->
<g id="node8" class="node"><title>test</title>
<polygon fill="lightcyan" stroke="black" points="602,-261 548,-261 548,-225 602,-225 602,-261"/>
<text text-anchor="middle" x="575" y="-239.3" font-family="Times,serif" font-size="14.00">test</text>
</g>
<!-- classes&#45;&gt;test -->
<g id="edge4" class="edge"><title>classes&#45;&gt;test</title>
<path fill="none" stroke="black" d="M648.765,-467.978C640.052,-433.667 618.921,-353.932 595,-289 592.804,-283.038 590.197,-276.746 587.604,-270.817"/>
<polygon fill="black" stroke="black" points="590.62,-268.99 583.326,-261.305 584.236,-271.861 590.62,-268.99"/>
</g>
<!-- javadoc -->
<g id="node13" class="node"><title>javadoc</title>
<polygon fill="lightcyan" stroke="black" points="321.25,-432 262.75,-432 262.75,-396 321.25,-396 321.25,-432"/>
<text text-anchor="middle" x="292" y="-410.3" font-family="Times,serif" font-size="14.00">javadoc</text>
</g>
<!-- classes&#45;&gt;javadoc -->
<g id="edge3" class="edge"><title>classes&#45;&gt;javadoc</title>
<path fill="none" stroke="black" d="M625.825,-485.435C568.639,-485.463 432.528,-480.818 328,-440 325.927,-439.19 323.857,-438.239 321.818,-437.19"/>
<polygon fill="black" stroke="black" points="323.544,-434.145 313.15,-432.091 319.995,-440.178 323.544,-434.145"/>
</g>
<!-- bundle -->
<g id="node15" class="node"><title>bundle</title>
<polygon fill="cyan" stroke="black" points="957,-504 903,-504 903,-468 957,-468 957,-504"/>
<text text-anchor="middle" x="930" y="-482.3" font-family="Times,serif" font-size="14.00">bundle</text>
</g>
<!-- classes&#45;&gt;bundle -->
<g id="edge20" class="edge"><title>classes&#45;&gt;bundle</title>
<path fill="none" stroke="black" d="M680.051,-486C750.921,-486 821.791,-486 892.662,-486"/>
<polygon fill="black" stroke="black" points="892.662,-489.5 902.662,-486 892.662,-482.5 892.662,-489.5"/>
</g>
<!-- findbugsMain -->
<g id="node29" class="node"><title>findbugsMain</title>
<polygon fill="cyan" stroke="black" points="117.25,-333 24.75,-333 24.75,-297 117.25,-297 117.25,-333"/>
<text text-anchor="middle" x="71" y="-311.3" font-family="Times,serif" font-size="14.00">findbugsMain</text>
</g>
<!-- classes&#45;&gt;findbugsMain -->
<g id="edge30" class="edge"><title>classes&#45;&gt;findbugsMain</title>
<path fill="none" stroke="black" d="M625.909,-483.705C547.141,-479.667 319.385,-465.999 250,-440 189.299,-417.254 129.608,-369.348 96.8062,-340.191"/>
<polygon fill="black" stroke="black" points="98.8327,-337.306 89.0619,-333.209 94.1453,-342.505 98.8327,-337.306"/>
</g>
<!-- uploadArchives -->
<g id="node10" class="node"><title>uploadArchives</title>
<polygon fill="lightcyan" stroke="black" points="828,-333 726,-333 726,-297 828,-297 828,-333"/>
<text text-anchor="middle" x="777" y="-311.3" font-family="Times,serif" font-size="14.00">uploadArchives</text>
</g>
<!-- jar&#45;&gt;uploadArchives -->
<g id="edge9" class="edge"><title>jar&#45;&gt;uploadArchives</title>
<path fill="none" stroke="black" d="M734.297,-395.658C742.283,-380.761 753.915,-359.063 763.023,-342.073"/>
<polygon fill="black" stroke="black" points="766.144,-343.659 767.784,-333.192 759.974,-340.351 766.144,-343.659"/>
</g>
<!-- assemble -->
<g id="node11" class="node"><title>assemble</title>
<polygon fill="lightcyan" stroke="black" points="707.25,-333 640.75,-333 640.75,-297 707.25,-297 707.25,-333"/>
<text text-anchor="middle" x="674" y="-311.3" font-family="Times,serif" font-size="14.00">assemble</text>
</g>
<!-- jar&#45;&gt;assemble -->
<g id="edge10" class="edge"><title>jar&#45;&gt;assemble</title>
<path fill="none" stroke="black" d="M715.882,-395.658C708.05,-380.761 696.641,-359.063 687.708,-342.073"/>
<polygon fill="black" stroke="black" points="690.791,-340.414 683.039,-333.192 684.595,-343.672 690.791,-340.414"/>
</g>
<!-- testClasses -->
<g id="node7" class="node"><title>testClasses</title>
<polygon fill="lightcyan" stroke="black" points="586,-333 510,-333 510,-297 586,-297 586,-333"/>
<text text-anchor="middle" x="548" y="-311.3" font-family="Times,serif" font-size="14.00">testClasses</text>
</g>
<!-- compileTestJava&#45;&gt;testClasses -->
<g id="edge7" class="edge"><title>compileTestJava&#45;&gt;testClasses</title>
<path fill="none" stroke="black" d="M548,-395.658C548,-381.175 548,-360.263 548,-343.499"/>
<polygon fill="black" stroke="black" points="551.5,-343.191 548,-333.192 544.5,-343.192 551.5,-343.191"/>
</g>
<!-- processTestResources -->
<g id="node6" class="node"><title>processTestResources</title>
<polygon fill="lightcyan" stroke="black" points="476,-432 340,-432 340,-396 476,-396 476,-432"/>
<text text-anchor="middle" x="408" y="-410.3" font-family="Times,serif" font-size="14.00">processTestResources</text>
</g>
<!-- processTestResources&#45;&gt;testClasses -->
<g id="edge8" class="edge"><title>processTestResources&#45;&gt;testClasses</title>
<path fill="none" stroke="black" d="M431.026,-395.775C446.211,-384.534 466.619,-369.653 485,-357 493.879,-350.888 503.587,-344.452 512.665,-338.537"/>
<polygon fill="black" stroke="black" points="514.639,-341.428 521.128,-333.053 510.832,-335.554 514.639,-341.428"/>
</g>
<!-- testClasses&#45;&gt;test -->
<g id="edge11" class="edge"><title>testClasses&#45;&gt;test</title>
<path fill="none" stroke="black" d="M554.674,-296.697C557.715,-288.813 561.383,-279.304 564.761,-270.546"/>
<polygon fill="black" stroke="black" points="568.069,-271.694 568.403,-261.104 561.538,-269.175 568.069,-271.694"/>
</g>
<!-- findbugsTest -->
<g id="node27" class="node"><title>findbugsTest</title>
<polygon fill="cyan" stroke="black" points="229.25,-333 142.75,-333 142.75,-297 229.25,-297 229.25,-333"/>
<text text-anchor="middle" x="186" y="-311.3" font-family="Times,serif" font-size="14.00">findbugsTest</text>
</g>
<!-- testClasses&#45;&gt;findbugsTest -->
<g id="edge31" class="edge"><title>testClasses&#45;&gt;findbugsTest</title>
<path fill="none" stroke="black" d="M509.741,-315C419.697,-315 329.653,-315 239.609,-315"/>
<polygon fill="black" stroke="black" points="239.482,-311.5 229.482,-315 239.482,-318.5 239.482,-311.5"/>
</g>
<!-- check -->
<g id="node9" class="node"><title>check</title>
<polygon fill="lightcyan" stroke="black" points="602,-178 548,-178 548,-142 602,-142 602,-178"/>
<text text-anchor="middle" x="575" y="-156.3" font-family="Times,serif" font-size="14.00">check</text>
</g>
<!-- test&#45;&gt;check -->
<g id="edge13" class="edge"><title>test&#45;&gt;check</title>
<path fill="none" stroke="black" d="M575,-224.822C575,-214.19 575,-200.306 575,-188.204"/>
<polygon fill="black" stroke="black" points="578.5,-188.153 575,-178.153 571.5,-188.153 578.5,-188.153"/>
</g>
<!-- build -->
<g id="node12" class="node"><title>build</title>
<polygon fill="lightcyan" stroke="black" points="638,-106 584,-106 584,-70 638,-70 638,-106"/>
<text text-anchor="middle" x="611" y="-84.3" font-family="Times,serif" font-size="14.00">build</text>
</g>
<!-- check&#45;&gt;build -->
<g id="edge14" class="edge"><title>check&#45;&gt;build</title>
<path fill="none" stroke="black" d="M583.899,-141.697C587.997,-133.728 592.949,-124.1 597.493,-115.264"/>
<polygon fill="black" stroke="black" points="600.742,-116.598 602.203,-106.104 594.517,-113.396 600.742,-116.598"/>
</g>
<!-- assemble&#45;&gt;build -->
<g id="edge12" class="edge"><title>assemble&#45;&gt;build</title>
<path fill="none" stroke="black" d="M669.161,-296.718C658.232,-257.686 631.575,-162.481 618.492,-115.757"/>
<polygon fill="black" stroke="black" points="621.836,-114.719 615.769,-106.033 615.095,-116.606 621.836,-114.719"/>
</g>
<!-- cleanJava -->
<g id="node14" class="node"><title>cleanJava</title>
<polygon fill="lightcyan" stroke="black" points="462,-595 408,-595 408,-559 462,-559 462,-595"/>
<text text-anchor="middle" x="435" y="-573.3" font-family="Times,serif" font-size="14.00">clean</text>
</g>
<!-- bundle&#45;&gt;compileJava -->
<g id="edge21" class="edge"><title>bundle&#45;&gt;compileJava</title>
<path fill="none" stroke="red" d="M905.012,-504.107C884.711,-518.006 855.888,-537.738 833.573,-553.016"/>
<polygon fill="red" stroke="red" points="831.34,-550.303 825.065,-558.84 835.294,-556.079 831.34,-550.303"/>
</g>
<!-- bundle&#45;&gt;jar -->
<g id="edge22" class="edge"><title>bundle&#45;&gt;jar</title>
<path fill="none" stroke="black" stroke-dasharray="5,2" d="M902.778,-475.705C866.455,-463.302 802.023,-441.3 761.512,-427.468"/>
<polygon fill="black" stroke="black" points="762.603,-424.142 752.008,-424.222 760.341,-430.766 762.603,-424.142"/>
</g>
<!-- bundle&#45;&gt;test -->
<g id="edge24" class="edge"><title>bundle&#45;&gt;test</title>
<path fill="none" stroke="black" d="M910.392,-467.686C902.525,-459.882 893.936,-450.146 888,-440 852.439,-379.218 893.146,-335.201 840,-289 806.639,-259.998 677.522,-249.277 612.648,-245.662"/>
<polygon fill="black" stroke="black" points="612.609,-242.155 602.438,-245.123 612.24,-249.146 612.609,-242.155"/>
</g>
<!-- bundleTest -->
<g id="node16" class="node"><title>bundleTest</title>
<polygon fill="cyan" stroke="black" points="974.25,-432 897.75,-432 897.75,-396 974.25,-396 974.25,-432"/>
<text text-anchor="middle" x="936" y="-410.3" font-family="Times,serif" font-size="14.00">bundleTest</text>
</g>
<!-- bundle&#45;&gt;bundleTest -->
<g id="edge23" class="edge"><title>bundle&#45;&gt;bundleTest</title>
<path fill="none" stroke="black" d="M931.483,-467.697C932.144,-459.983 932.939,-450.712 933.676,-442.112"/>
<polygon fill="black" stroke="black" points="937.167,-442.367 934.534,-432.104 930.193,-441.769 937.167,-442.367"/>
</g>
<!-- release -->
<g id="node17" class="node"><title>release</title>
<polygon fill="cyan" stroke="black" points="1063,-432 1009,-432 1009,-396 1063,-396 1063,-432"/>
<text text-anchor="middle" x="1036" y="-410.3" font-family="Times,serif" font-size="14.00">release</text>
</g>
<!-- bundle&#45;&gt;release -->
<g id="edge25" class="edge"><title>bundle&#45;&gt;release</title>
<path fill="none" stroke="black" d="M955.931,-467.876C969.662,-458.808 986.706,-447.552 1001.54,-437.759"/>
<polygon fill="black" stroke="black" points="1003.55,-440.621 1009.97,-432.19 999.696,-434.78 1003.55,-440.621"/>
</g>
<!-- export -->
<g id="node20" class="node"><title>export</title>
<polygon fill="cyan" stroke="black" points="1191,-432 1137,-432 1137,-396 1191,-396 1191,-432"/>
<text text-anchor="middle" x="1164" y="-410.3" font-family="Times,serif" font-size="14.00">export</text>
</g>
<!-- bundle&#45;&gt;export -->
<g id="edge26" class="edge"><title>bundle&#45;&gt;export</title>
<path fill="none" stroke="black" d="M957.078,-481.74C995.586,-476.446 1067.84,-464.061 1125,-440 1127.05,-439.138 1129.11,-438.171 1131.15,-437.132"/>
<polygon fill="black" stroke="black" points="1132.93,-440.149 1139.95,-432.213 1129.51,-434.039 1132.93,-440.149"/>
</g>
<!-- bundleTest&#45;&gt;check -->
<g id="edge27" class="edge"><title>bundleTest&#45;&gt;check</title>
<path fill="none" stroke="black" d="M930.959,-395.887C922.427,-369.63 902.79,-319.274 870,-289 793.806,-218.651 672.868,-183.001 612.235,-168.733"/>
<polygon fill="black" stroke="black" points="612.866,-165.287 602.338,-166.469 611.305,-172.111 612.866,-165.287"/>
</g>
<!-- releaseNeeded -->
<g id="node18" class="node"><title>releaseNeeded</title>
<polygon fill="cyan" stroke="black" points="1094.25,-333 999.75,-333 999.75,-297 1094.25,-297 1094.25,-333"/>
<text text-anchor="middle" x="1047" y="-311.3" font-family="Times,serif" font-size="14.00">releaseNeeded</text>
</g>
<!-- release&#45;&gt;releaseNeeded -->
<g id="edge28" class="edge"><title>release&#45;&gt;releaseNeeded</title>
<path fill="none" stroke="black" d="M1037.97,-395.658C1039.61,-381.175 1041.98,-360.263 1043.88,-343.499"/>
<polygon fill="black" stroke="black" points="1047.4,-343.522 1045.05,-333.192 1040.45,-342.733 1047.4,-343.522"/>
</g>
<!-- releaseNeeded&#45;&gt;releaseNeeded -->
<g id="edge29" class="edge"><title>releaseNeeded&#45;&gt;releaseNeeded</title>
<path fill="none" stroke="red" d="M1094.33,-328.101C1104.57,-326.82 1112,-322.453 1112,-315 1112,-310.225 1108.95,-306.717 1104.07,-304.476"/>
<polygon fill="red" stroke="red" points="1104.89,-301.073 1094.33,-301.899 1103.1,-307.84 1104.89,-301.073"/>
</g>
<!-- distIndexOBR -->
<g id="node21" class="node"><title>distIndexOBR</title>
<polygon fill="cyan" stroke="black" points="1143,-261 1069,-261 1069,-225 1143,-225 1143,-261"/>
<text text-anchor="middle" x="1106" y="-239.3" font-family="Times,serif" font-size="14.00">indexOBR</text>
</g>
<!-- releaseNeeded&#45;&gt;distIndexOBR -->
<g id="edge15" class="edge"><title>releaseNeeded&#45;&gt;distIndexOBR</title>
<path fill="none" stroke="black" d="M1061.58,-296.697C1068.66,-288.305 1077.28,-278.07 1085.05,-268.861"/>
<polygon fill="black" stroke="black" points="1087.81,-271.006 1091.58,-261.104 1082.46,-266.495 1087.81,-271.006"/>
</g>
<!-- distIndexR5 -->
<g id="node22" class="node"><title>distIndexR5</title>
<polygon fill="cyan" stroke="black" points="1051,-261 989,-261 989,-225 1051,-225 1051,-261"/>
<text text-anchor="middle" x="1020" y="-239.3" font-family="Times,serif" font-size="14.00">indexR5</text>
</g>
<!-- releaseNeeded&#45;&gt;distIndexR5 -->
<g id="edge16" class="edge"><title>releaseNeeded&#45;&gt;distIndexR5</title>
<path fill="none" stroke="black" d="M1040.33,-296.697C1037.29,-288.813 1033.62,-279.304 1030.24,-270.546"/>
<polygon fill="black" stroke="black" points="1033.46,-269.175 1026.6,-261.104 1026.93,-271.694 1033.46,-269.175"/>
</g>
<!-- bndproperties -->
<g id="node19" class="node"><title>bndproperties</title>
<polygon fill="cyan" stroke="black" points="1300.25,-432 1209.75,-432 1209.75,-396 1300.25,-396 1300.25,-432"/>
<text text-anchor="middle" x="1255" y="-410.3" font-family="Times,serif" font-size="14.00">bndproperties</text>
</g>
<!-- distIndex -->
<g id="node23" class="node"><title>distIndex</title>
<polygon fill="cyan" stroke="black" points="1090,-178 1036,-178 1036,-142 1090,-142 1090,-178"/>
<text text-anchor="middle" x="1063" y="-156.3" font-family="Times,serif" font-size="14.00">index</text>
</g>
<!-- distIndexOBR&#45;&gt;distIndex -->
<g id="edge17" class="edge"><title>distIndexOBR&#45;&gt;distIndex</title>
<path fill="none" stroke="black" d="M1096.88,-224.822C1091.07,-213.868 1083.42,-199.462 1076.86,-187.108"/>
<polygon fill="black" stroke="black" points="1079.89,-185.345 1072.11,-178.153 1073.7,-188.627 1079.89,-185.345"/>
</g>
<!-- distIndexR5&#45;&gt;distIndex -->
<g id="edge18" class="edge"><title>distIndexR5&#45;&gt;distIndex</title>
<path fill="none" stroke="black" d="M1029.12,-224.822C1034.93,-213.868 1042.58,-199.462 1049.14,-187.108"/>
<polygon fill="black" stroke="black" points="1052.3,-188.627 1053.89,-178.153 1046.11,-185.345 1052.3,-188.627"/>
</g>
<!-- distDist -->
<g id="node24" class="node"><title>distDist</title>
<polygon fill="cyan" stroke="black" points="1090,-106 1036,-106 1036,-70 1090,-70 1090,-106"/>
<text text-anchor="middle" x="1063" y="-84.3" font-family="Times,serif" font-size="14.00">dist</text>
</g>
<!-- distIndex&#45;&gt;distDist -->
<g id="edge19" class="edge"><title>distIndex&#45;&gt;distDist</title>
<path fill="none" stroke="black" d="M1063,-141.697C1063,-133.983 1063,-124.712 1063,-116.112"/>
<polygon fill="black" stroke="black" points="1066.5,-116.104 1063,-106.104 1059.5,-116.104 1066.5,-116.104"/>
</g>
<!-- wrapper -->
<g id="node25" class="node"><title>wrapper</title>
<polygon fill="cyan" stroke="black" points="1121.25,-595 1060.75,-595 1060.75,-559 1121.25,-559 1121.25,-595"/>
<text text-anchor="middle" x="1091" y="-573.3" font-family="Times,serif" font-size="14.00">wrapper</text>
</g>
<!-- findbugstest -->
<g id="node26" class="node"><title>findbugstest</title>
<polygon fill="cyan" stroke="black" points="228.25,-261 145.75,-261 145.75,-225 228.25,-225 228.25,-261"/>
<text text-anchor="middle" x="187" y="-239.3" font-family="Times,serif" font-size="14.00">findbugstest</text>
</g>
<!-- findbugstest&#45;&gt;check -->
<g id="edge35" class="edge"><title>findbugstest&#45;&gt;check</title>
<path fill="none" stroke="green" d="M222.035,-224.919C250.034,-212.053 290.642,-195.121 328,-186 400.947,-168.19 489,-163.043 537.816,-161.571"/>
<polygon fill="green" stroke="green" points="538.002,-165.068 547.906,-161.303 537.816,-158.07 538.002,-165.068"/>
</g>
<!-- findbugsTest&#45;&gt;findbugstest -->
<g id="edge33" class="edge"><title>findbugsTest&#45;&gt;findbugstest</title>
<path fill="none" stroke="black" d="M186.247,-296.697C186.357,-288.983 186.49,-279.712 186.613,-271.112"/>
<polygon fill="black" stroke="black" points="190.112,-271.153 186.756,-261.104 183.113,-271.053 190.112,-271.153"/>
</g>
<!-- findbugs -->
<g id="node28" class="node"><title>findbugs</title>
<polygon fill="cyan" stroke="black" points="110,-261 46,-261 46,-225 110,-225 110,-261"/>
<text text-anchor="middle" x="78" y="-239.3" font-family="Times,serif" font-size="14.00">findbugs</text>
</g>
<!-- findbugs&#45;&gt;check -->
<g id="edge34" class="edge"><title>findbugs&#45;&gt;check</title>
<path fill="none" stroke="green" d="M88.467,-224.968C97.6254,-211.763 112.228,-194.351 130,-186 166.404,-168.894 437.227,-163.083 537.664,-161.504"/>
<polygon fill="green" stroke="green" points="537.999,-165 547.944,-161.348 537.892,-158 537.999,-165"/>
</g>
<!-- findbugsMain&#45;&gt;findbugs -->
<g id="edge32" class="edge"><title>findbugsMain&#45;&gt;findbugs</title>
<path fill="none" stroke="black" d="M72.7303,-296.697C73.5017,-288.983 74.4288,-279.712 75.2888,-271.112"/>
<polygon fill="black" stroke="black" points="78.7771,-271.403 76.2896,-261.104 71.8118,-270.706 78.7771,-271.403"/>
</g>
<!-- indexOBR -->
<g id="node30" class="node"><title>indexOBR</title>
<polygon fill="cyan" stroke="black" points="1707,-595 1633,-595 1633,-559 1707,-559 1707,-595"/>
<text text-anchor="middle" x="1670" y="-573.3" font-family="Times,serif" font-size="14.00">indexOBR</text>
</g>
<!-- index -->
<g id="node32" class="node"><title>index</title>
<polygon fill="cyan" stroke="black" points="1654,-504 1600,-504 1600,-468 1654,-468 1654,-504"/>
<text text-anchor="middle" x="1627" y="-482.3" font-family="Times,serif" font-size="14.00">index</text>
</g>
<!-- indexOBR&#45;&gt;index -->
<g id="edge36" class="edge"><title>indexOBR&#45;&gt;index</title>
<path fill="none" stroke="black" d="M1661.71,-558.84C1655.46,-545.912 1646.79,-527.958 1639.67,-513.232"/>
<polygon fill="black" stroke="black" points="1642.77,-511.589 1635.27,-504.107 1636.46,-514.634 1642.77,-511.589"/>
</g>
<!-- indexR5 -->
<g id="node31" class="node"><title>indexR5</title>
<polygon fill="cyan" stroke="black" points="1615,-595 1553,-595 1553,-559 1615,-559 1615,-595"/>
<text text-anchor="middle" x="1584" y="-573.3" font-family="Times,serif" font-size="14.00">indexR5</text>
</g>
<!-- indexR5&#45;&gt;index -->
<g id="edge37" class="edge"><title>indexR5&#45;&gt;index</title>
<path fill="none" stroke="black" d="M1592.29,-558.84C1598.54,-545.912 1607.21,-527.958 1614.33,-513.232"/>
<polygon fill="black" stroke="black" points="1617.54,-514.634 1618.73,-504.107 1611.23,-511.589 1617.54,-514.634"/>
</g>
<!-- clean -->
<g id="node33" class="node"><title>clean</title>
<polygon fill="lightcyan" stroke="black" points="1467,-595 1413,-595 1413,-559 1467,-559 1467,-595"/>
<text text-anchor="middle" x="1440" y="-573.3" font-family="Times,serif" font-size="14.00">clean</text>
</g>
<!-- cleanNeeded -->
<g id="node34" class="node"><title>cleanNeeded</title>
<polygon fill="cyan" stroke="black" points="1427,-504 1341,-504 1341,-468 1427,-468 1427,-504"/>
<text text-anchor="middle" x="1384" y="-482.3" font-family="Times,serif" font-size="14.00">cleanNeeded</text>
</g>
<!-- clean&#45;&gt;cleanNeeded -->
<g id="edge38" class="edge"><title>clean&#45;&gt;cleanNeeded</title>
<path fill="none" stroke="blue" d="M1429.2,-558.84C1420.99,-545.789 1409.56,-527.615 1400.24,-512.813"/>
<polygon fill="blue" stroke="blue" points="1403.05,-510.707 1394.76,-504.107 1397.13,-514.435 1403.05,-510.707"/>
</g>
<!-- distclean -->
<g id="node35" class="node"><title>distclean</title>
<polygon fill="cyan" stroke="black" points="1528.25,-504 1463.75,-504 1463.75,-468 1528.25,-468 1528.25,-504"/>
<text text-anchor="middle" x="1496" y="-482.3" font-family="Times,serif" font-size="14.00">distclean</text>
</g>
<!-- clean&#45;&gt;distclean -->
<g id="edge40" class="edge"><title>clean&#45;&gt;distclean</title>
<path fill="none" stroke="blue" d="M1450.8,-558.84C1459.01,-545.789 1470.44,-527.615 1479.76,-512.813"/>
<polygon fill="blue" stroke="blue" points="1482.87,-514.435 1485.24,-504.107 1476.95,-510.707 1482.87,-514.435"/>
</g>
<!-- cleanNeeded&#45;&gt;cleanNeeded -->
<g id="edge39" class="edge"><title>cleanNeeded&#45;&gt;cleanNeeded</title>
<path fill="none" stroke="red" d="M1427.04,-499.262C1437.35,-498.225 1445,-493.805 1445,-486 1445,-481 1441.86,-477.389 1436.89,-475.167"/>
<polygon fill="red" stroke="red" points="1437.58,-471.732 1427.04,-472.738 1435.91,-478.529 1437.58,-471.732"/>
</g>
<!-- distcleanNeeded -->
<g id="node36" class="node"><title>distcleanNeeded</title>
<polygon fill="cyan" stroke="black" points="1511,-432 1405,-432 1405,-396 1511,-396 1511,-432"/>
<text text-anchor="middle" x="1458" y="-410.3" font-family="Times,serif" font-size="14.00">distcleanNeeded</text>
</g>
<!-- distclean&#45;&gt;distcleanNeeded -->
<g id="edge41" class="edge"><title>distclean&#45;&gt;distcleanNeeded</title>
<path fill="none" stroke="black" d="M1486.61,-467.697C1482.24,-459.644 1476.94,-449.894 1472.1,-440.982"/>
<polygon fill="black" stroke="black" points="1475.13,-439.223 1467.29,-432.104 1468.98,-442.563 1475.13,-439.223"/>
</g>
<!-- distcleanNeeded&#45;&gt;distcleanNeeded -->
<g id="edge42" class="edge"><title>distcleanNeeded&#45;&gt;distcleanNeeded</title>
<path fill="none" stroke="red" d="M1511.26,-426.899C1521.63,-425.401 1529,-421.102 1529,-414 1529,-409.451 1525.98,-406.051 1521.08,-403.801"/>
<polygon fill="red" stroke="red" points="1521.83,-400.378 1511.26,-401.101 1519.97,-407.128 1521.83,-400.378"/>
</g>
</g>
</svg>
